<?xml version="1.0" ?><!DOCTYPE svg  PUBLIC '-//W3C//DTD SVG 1.1//EN'  'http://www.w3.org/Graphics/SVG/1.1/DTD/svg11.dtd'><svg height="100%" style="fill-rule:evenodd;clip-rule:evenodd;stroke-linejoin:round;stroke-miterlimit:1.41421;" version="1.1" viewBox="0 0 128 128" width="100%" xml:space="preserve" xmlns="http://www.w3.org/2000/svg" xmlns:serif="http://www.serif.com/" xmlns:xlink="http://www.w3.org/1999/xlink"><rect height="128" id="Trash" style="fill:none;" width="128" x="0.359" y="0.21"/><path d="M96.71,30.32c1.177,0.467 1.307,0.708 1.382,1.902c0,22.128 0.07,44.256 0,66.383c-0.077,8.095 -7.003,15.535 -15.617,15.617c-12.255,0.039 -24.511,0.039 -36.766,0c-8.141,-0.077 -15.536,-7.143 -15.617,-15.617l0,-66.383c0,0 0.927,-3.049 3.072,-1.688c0.565,0.358 0.885,1.004 0.928,1.688c0,22.145 -0.209,44.29 0.001,66.434c0.095,6.006 5.239,11.465 11.566,11.565c12.288,0.117 24.578,0.117 36.866,0c6.073,-0.096 11.547,-5.36 11.567,-11.72l0,-66.279c0.08,-1.271 1.244,-2.255 2.618,-1.902Zm-32.394,4.415c0.985,0.167 1.719,0.965 1.776,1.987l0,64c-0.104,1.852 -0.918,1.891 -1.776,1.988c-1.119,0.126 -2.16,-0.839 -2.224,-1.988l0,-64c0.064,-1.135 0.98,-2.057 2.224,-1.987Zm16,0c0.985,0.167 1.719,0.965 1.776,1.987l0,64c-0.091,1.622 -2.212,2.617 -3.414,1.415c-0.349,-0.349 -0.54,-0.587 -0.586,-1.415l0,-64c0.064,-1.135 0.98,-2.057 2.224,-1.987Zm-32,0c0.985,0.167 1.719,0.965 1.776,1.987l0,64c-0.092,1.638 -2.256,2.573 -3.414,1.415c-0.349,-0.349 -0.54,-0.587 -0.586,-1.415l0,-64c0.064,-1.135 0.98,-2.057 2.224,-1.987Zm57.276,-7.513l-82.5,0c-0.084,-0.005 -0.167,-0.01 -0.251,-0.015c-1.7,-0.325 -1.692,-1.009 -1.745,-1.859c-0.068,-1.079 0.867,-2.055 1.996,-2.126l23,0l0.001,-5.589c0.068,-1.785 1.587,-3.34 3.41,-3.41c9.7,-0.122 19.401,-0.001 29.102,-0.001c1.838,0.023 3.463,1.609 3.487,3.488l0,5.512l23.5,0c0,0 3.239,1.223 1.541,3.275c-0.372,0.45 -0.94,0.688 -1.541,0.725Zm-55.5,-4l28,0l0,-5l-28,0l0,5Z"/></svg>